<?xml version="1.0" encoding="UTF-8"?>
<svg id="Layer_2" data-name="Layer 2" xmlns="http://www.w3.org/2000/svg" viewBox="0 0 317.63 71.2">
  <defs>
    <style>
      .cls-1 {
        fill: #5dc983;
        stroke-width: 0px;
      }
    </style>
  </defs>
  <g id="Logo">
    <g>
      <path class="cls-1" d="M87.58.08l-30.57,10.64-5.5,1.91.22,8.8,6.1,4.43,15.35-4.68c3.16-.99,5.64-3.03,6.78-5.58l-14.32,3.63,10.32-4.25c3.57-1.47,6.33-3.95,7.72-6.95l-18.11,5.03,12.61-5c4.23-1.68,7.56-4.5,9.41-7.97Z"/>
      <path class="cls-1" d="M62.66,35.11s.98-3.75.58-8.78l-3.11.93-2.62.79-7.62-5.79-.28-11.13,6.38-2.13c-2.63-2.64-4.91-4.57-9.73-6.32C13.45-9.26,0,22.67,0,22.67l11.24,2.23-2.25,17.34c-.03.21-.09.42-.2.61l-5.11,9.44c-.58,1.07.08,2.4,1.29,2.58l6.19.93c.76.11,1.36.71,1.48,1.47l1.94,12.44c.18,1.12,1.35,1.79,2.4,1.36l21.68-8.85c.4-.16.73-.47.92-.87l5.31-11.05c.23-.49.68-.84,1.21-.96l15.9-3.5c.8-.18,1.37-.88,1.38-1.71.01-1.82-.09-5.21-.82-9.05l.1.02Z"/>
    </g>
    <g>
      <path class="cls-1" d="M111.93,38.38v14.93h-6.18V17.88h6.18v14.73h17.01v-14.73h6.18v35.43h-6.18v-14.93h-17.01Z"/>
      <path class="cls-1" d="M170.44,23.5h-20.04v9.11h17.77v5.62h-17.77v9.47h20.3v5.62h-26.47V17.88h26.22v5.62Z"/>
      <path class="cls-1" d="M200.86,53.31l-8.73-12.35h-7.82v12.35h-6.18V17.88h15.79c2.02,0,3.85.26,5.49.78,1.64.52,3.02,1.27,4.15,2.23,1.13.96,2,2.14,2.61,3.54.61,1.4.91,2.96.91,4.68,0,1.49-.21,2.81-.63,3.97-.42,1.16-1,2.19-1.75,3.09-.74.89-1.63,1.65-2.66,2.28-1.03.62-2.17,1.11-3.42,1.44l9.57,13.41h-7.34ZM198.83,25c-1.29-1-3.1-1.5-5.43-1.5h-9.09v11.94h9.14c2.23,0,4.01-.54,5.33-1.63,1.32-1.08,1.98-2.54,1.98-4.37,0-1.97-.64-3.45-1.93-4.45Z"/>
      <path class="cls-1" d="M232.19,44.61h-.2l-11.08-16.6v25.31h-6.18V17.88h6.63l10.78,16.75,10.78-16.75h6.63v35.43h-6.17v-25.41l-11.19,16.7Z"/>
      <path class="cls-1" d="M284.88,23.5h-20.04v9.11h17.77v5.62h-17.77v9.47h20.3v5.62h-26.47V17.88h26.22v5.62Z"/>
      <path class="cls-1" d="M298.14,28.97c.24.51.67.98,1.29,1.42.63.44,1.49.84,2.59,1.21,1.1.37,2.49.76,4.19,1.16,1.86.47,3.51,1,4.95,1.57,1.44.57,2.63,1.27,3.58,2.1.95.83,1.67,1.79,2.16,2.89.49,1.1.74,2.39.74,3.87,0,1.69-.31,3.19-.93,4.5s-1.48,2.43-2.59,3.34c-1.1.91-2.43,1.6-3.98,2.08-1.55.47-3.25.71-5.11.71-2.73,0-5.35-.46-7.85-1.39s-4.81-2.35-6.93-4.28l3.75-4.45c1.72,1.49,3.46,2.62,5.21,3.42,1.75.79,3.75,1.19,5.97,1.19,1.92,0,3.45-.4,4.58-1.21,1.13-.81,1.7-1.91,1.7-3.29,0-.64-.11-1.21-.33-1.72-.22-.51-.63-.97-1.22-1.39-.59-.42-1.4-.82-2.44-1.19-1.03-.37-2.38-.76-4.03-1.16-1.9-.44-3.58-.93-5.05-1.47-1.47-.54-2.71-1.21-3.7-2.02s-1.76-1.79-2.28-2.94c-.52-1.15-.79-2.55-.79-4.2,0-1.55.3-2.96.9-4.23s1.43-2.35,2.49-3.26c1.05-.91,2.32-1.61,3.8-2.1,1.48-.49,3.1-.73,4.85-.73,2.6,0,4.93.38,7.01,1.14,2.08.76,4.02,1.86,5.85,3.32l-3.34,4.71c-1.62-1.18-3.22-2.08-4.81-2.71-1.59-.62-3.19-.94-4.81-.94-1.82,0-3.24.41-4.25,1.24-1.01.83-1.52,1.83-1.52,3.01,0,.71.12,1.32.36,1.82Z"/>
    </g>
  </g>
</svg>