<?xml version="1.0" encoding="UTF-8"?>
<svg id="Layer_2" data-name="Layer 2" xmlns="http://www.w3.org/2000/svg" viewBox="0 0 110.29 89.66">
  <defs>
    <style>
      .cls-1 {
        fill: #5dc983;
        stroke-width: 0px;
      }
    </style>
  </defs>
  <g id="Logo">
    <g>
      <path class="cls-1" d="M110.29.1l-38.5,13.4-6.92,2.41.27,11.08,7.68,5.58,19.34-5.9c3.98-1.25,7.1-3.81,8.54-7.03l-18.04,4.57,13-5.36c4.5-1.85,7.97-4.98,9.72-8.76l-22.81,6.34,15.88-6.3c5.32-2.11,9.53-5.67,11.85-10.03Z"/>
      <path class="cls-1" d="M78.91,44.21s1.23-4.72.74-11.06l-3.91,1.18-3.3.99-9.6-7.29-.35-14.01,8.03-2.69c-3.31-3.33-6.18-5.76-12.25-7.96C16.94-11.67,0,28.55,0,28.55l14.16,2.81-2.83,21.83c-.04.27-.12.53-.25.77l-6.44,11.89c-.73,1.35.1,3.02,1.62,3.25l7.79,1.17c.96.14,1.71.89,1.86,1.85l2.45,15.67c.22,1.41,1.7,2.25,3.03,1.71l27.3-11.14c.51-.21.92-.6,1.16-1.09l6.68-13.92c.29-.61.86-1.06,1.52-1.2l20.03-4.41c1.01-.22,1.73-1.11,1.74-2.15.02-2.29-.11-6.55-1.04-11.4l.13.03Z"/>
    </g>
  </g>
</svg>